T9432-Regular.ufo
<glyph name="exclamation_mark" format="2">
  <advance width="300"/>
  <unicode hex="0021"/>
  <outline>
    <contour>
      <point x="150" y="300" type="line" smooth="yes"/>
      <point x="150" y="750" type="line" smooth="yes"/>
      <point x="0" y="750" type="line" smooth="yes"/>
      <point x="0" y="300" type="line" smooth="yes"/>
    </contour>
    <contour>
      <point x="150" y="0" type="line" smooth="yes"/>
      <point x="150" y="150" type="line" smooth="yes"/>
      <point x="0" y="150" type="line" smooth="yes"/>
      <point x="0" y="0" type="line" smooth="yes"/>
    </contour>
  </outline>
</glyph>
<glyph name="percent_sign" format="2">
  <advance width="600"/>
  <unicode hex="0025"/>
  <outline>
    <contour>
      <point x="150" y="600" type="line"/>
      <point x="150" y="750" type="line"/>
      <point x="0" y="750" type="line"/>
      <point x="0" y="600" type="line"/>
    </contour>
    <contour>
      <point x="450" y="0" type="line"/>
      <point x="450" y="150" type="line"/>
      <point x="300" y="150" type="line"/>
      <point x="300" y="0" type="line"/>
    </contour>
    <contour>
      <point x="150" y="0" type="line"/>
      <point x="150" y="300" type="line"/>
      <point x="300" y="300" type="line"/>
      <point x="300" y="450" type="line"/>
      <point x="450" y="450" type="line"/>
      <point x="450" y="750" type="line"/>
      <point x="300" y="750" type="line"/>
      <point x="300" y="450" type="line"/>
      <point x="150" y="450" type="line"/>
      <point x="150" y="300" type="line"/>
      <point x="0" y="300" type="line"/>
      <point x="0" y="0" type="line"/>
    </contour>
  </outline>
</glyph>
<glyph name="ampersand" format="2">
  <advance width="750"/>
  <unicode hex="0026"/>
  <outline>
    <contour>
      <point x="450" y="-300" type="line"/>
      <point x="450" y="-150" type="line"/>
      <point x="600" y="-150" type="line"/>
      <point x="600" y="0" type="line"/>
      <point x="150" y="0" type="line"/>
      <point x="150" y="150" type="line"/>
      <point x="450" y="150" type="line"/>
      <point x="450" y="300" type="line"/>
      <point x="150" y="300" type="line"/>
      <point x="150" y="450" type="line"/>
      <point x="600" y="450" type="line"/>
      <point x="600" y="600" type="line"/>
      <point x="450" y="600" type="line"/>
      <point x="450" y="750" type="line"/>
      <point x="300" y="750" type="line"/>
      <point x="300" y="600" type="line"/>
      <point x="150" y="600" type="line"/>
      <point x="150" y="450" type="line"/>
      <point x="0" y="450" type="line"/>
      <point x="0" y="300" type="line"/>
      <point x="150" y="300" type="line"/>
      <point x="150" y="150" type="line"/>
      <point x="0" y="150" type="line"/>
      <point x="0" y="0" type="line"/>
      <point x="150" y="0" type="line"/>
      <point x="150" y="-150" type="line"/>
      <point x="300" y="-150" type="line"/>
      <point x="300" y="-300" type="line"/>
    </contour>
  </outline>
</glyph>
<glyph name="single_quote" format="2">
  <advance width="300"/>
  <unicode hex="0027"/>
  <outline>
    <contour>
      <point x="150" y="450" type="line" smooth="yes"/>
      <point x="150" y="750" type="line" smooth="yes"/>
      <point x="0" y="750" type="line" smooth="yes"/>
      <point x="0" y="450" type="line" smooth="yes"/>
    </contour>
  </outline>
</glyph>
<glyph name="right_parenthesis" format="2">
  <advance width="450"/>
  <unicode hex="0029"/>
  <outline>
    <contour>
      <point x="150" y="0" type="line" smooth="yes"/>
      <point x="150" y="150" type="line" smooth="yes"/>
      <point x="300" y="150" type="line" smooth="yes"/>
      <point x="300" y="600" type="line" smooth="yes"/>
      <point x="150" y="600" type="line" smooth="yes"/>
      <point x="150" y="750" type="line" smooth="yes"/>
      <point x="0" y="750" type="line" smooth="yes"/>
      <point x="0" y="600" type="line" smooth="yes"/>
      <point x="150" y="600" type="line" smooth="yes"/>
      <point x="150" y="150" type="line" smooth="yes"/>
      <point x="0" y="150" type="line" smooth="yes"/>
      <point x="0" y="0" type="line" smooth="yes"/>
    </contour>
  </outline>
</glyph>
<glyph name="comma" format="2">
  <advance width="600"/>
  <unicode hex="002C"/>
  <outline>
    <contour>
      <point x="150" y="-300" type="line"/>
      <point x="150" y="-150" type="line"/>
      <point x="300" y="-150" type="line"/>
      <point x="300" y="150" type="line"/>
      <point x="150" y="150" type="line"/>
      <point x="150" y="-150" type="line"/>
      <point x="0" y="-150" type="line"/>
      <point x="0" y="-300" type="line"/>
    </contour>
  </outline>
</glyph>
<glyph name="period" format="2">
  <advance width="300"/>
  <unicode hex="002E"/>
  <outline>
    <contour>
      <point x="150" y="0" type="line" smooth="yes"/>
      <point x="150" y="150" type="line" smooth="yes"/>
      <point x="0" y="150" type="line" smooth="yes"/>
      <point x="0" y="0" type="line" smooth="yes"/>
    </contour>
  </outline>
</glyph>
<glyph name="slash" format="2">
  <advance width="600"/>
  <unicode hex="002F"/>
  <outline>
    <contour>
      <point x="150" y="0" type="line" smooth="yes"/>
      <point x="150" y="300" type="line" smooth="yes"/>
      <point x="300" y="300" type="line" smooth="yes"/>
      <point x="300" y="450" type="line" smooth="yes"/>
      <point x="450" y="450" type="line" smooth="yes"/>
      <point x="450" y="750" type="line" smooth="yes"/>
      <point x="300" y="750" type="line" smooth="yes"/>
      <point x="300" y="450" type="line" smooth="yes"/>
      <point x="150" y="450" type="line" smooth="yes"/>
      <point x="150" y="300" type="line" smooth="yes"/>
      <point x="0" y="300" type="line" smooth="yes"/>
      <point x="0" y="0" type="line" smooth="yes"/>
    </contour>
  </outline>
</glyph>
<glyph name="zero" format="2">
  <advance width="600"/>
  <unicode hex="0030"/>
  <outline>
    <contour>
      <point x="150" y="150" type="line"/>
      <point x="150" y="600" type="line"/>
      <point x="300" y="600" type="line"/>
      <point x="300" y="150" type="line"/>
    </contour>
    <contour>
      <point x="450" y="0" type="line"/>
      <point x="450" y="750" type="line"/>
      <point x="0" y="750" type="line"/>
      <point x="0" y="0" type="line"/>
    </contour>
  </outline>
</glyph>
<glyph name="two" format="2">
  <advance width="600"/>
  <unicode hex="0032"/>
  <outline>
    <contour>
      <point x="450" y="0" type="line"/>
      <point x="450" y="150" type="line"/>
      <point x="150" y="150" type="line"/>
      <point x="150" y="300" type="line"/>
      <point x="450" y="300" type="line"/>
      <point x="450" y="750" type="line"/>
      <point x="0" y="750" type="line"/>
      <point x="0" y="600" type="line"/>
      <point x="300" y="600" type="line"/>
      <point x="300" y="450" type="line"/>
      <point x="0" y="450" type="line"/>
      <point x="0" y="0" type="line"/>
    </contour>
  </outline>
</glyph>
<glyph name="colon" format="2">
  <advance width="300"/>
  <unicode hex="003A"/>
  <outline>
    <contour>
      <point x="150" y="450" type="line"/>
      <point x="150" y="600" type="line"/>
      <point x="0" y="600" type="line"/>
      <point x="0" y="450" type="line"/>
    </contour>
    <contour>
      <point x="150" y="0" type="line"/>
      <point x="150" y="150" type="line"/>
      <point x="0" y="150" type="line"/>
      <point x="0" y="0" type="line"/>
    </contour>
  </outline>
</glyph>
<glyph name="equal" format="2">
  <advance width="600"/>
  <unicode hex="003D"/>
  <outline>
    <contour>
      <point x="450" y="450" type="line"/>
      <point x="450" y="600" type="line"/>
      <point x="0" y="600" type="line"/>
      <point x="0" y="450" type="line"/>
    </contour>
    <contour>
      <point x="450" y="150" type="line"/>
      <point x="450" y="300" type="line"/>
      <point x="0" y="300" type="line"/>
      <point x="0" y="150" type="line"/>
    </contour>
  </outline>
</glyph>
<glyph name="at" format="2">
  <advance width="900"/>
  <unicode hex="0040"/>
  <outline>
    <contour>
      <point x="600" y="0" type="line"/>
      <point x="600" y="150" type="line"/>
      <point x="150" y="150" type="line"/>
      <point x="150" y="600" type="line"/>
      <point x="300" y="600" type="line"/>
      <point x="300" y="300" type="line"/>
      <point x="600" y="300" type="line"/>
      <point x="600" y="450" type="line"/>
      <point x="750" y="450" type="line"/>
      <point x="750" y="600" type="line"/>
      <point x="600" y="600" type="line"/>
      <point x="600" y="450" type="line"/>
      <point x="450" y="450" type="line"/>
      <point x="450" y="600" type="line"/>
      <point x="600" y="600" type="line"/>
      <point x="600" y="750" type="line"/>
      <point x="150" y="750" type="line"/>
      <point x="150" y="600" type="line"/>
      <point x="0" y="600" type="line"/>
      <point x="0" y="150" type="line"/>
      <point x="150" y="150" type="line"/>
      <point x="150" y="0" type="line"/>
    </contour>
  </outline>
</glyph>
<glyph name="latin_capital_letter_c" format="2">
  <advance width="600"/>
  <unicode hex="0043"/>
  <outline>
    <contour>
      <point x="450" y="0" type="line"/>
      <point x="450" y="150" type="line"/>
      <point x="150" y="150" type="line"/>
      <point x="150" y="600" type="line"/>
      <point x="450" y="600" type="line"/>
      <point x="450" y="750" type="line"/>
      <point x="0" y="750" type="line"/>
      <point x="0" y="0" type="line"/>
    </contour>
  </outline>
</glyph>
<glyph name="latin_capital_letter_k" format="2">
  <advance width="600"/>
  <unicode hex="004B"/>
  <outline>
    <contour>
      <point x="150" y="0" type="line" smooth="yes"/>
      <point x="150" y="300" type="line" smooth="yes"/>
      <point x="300" y="300" type="line" smooth="yes"/>
      <point x="300" y="0" type="line" smooth="yes"/>
      <point x="450" y="0" type="line" smooth="yes"/>
      <point x="450" y="300" type="line" smooth="yes"/>
      <point x="300" y="300" type="line" smooth="yes"/>
      <point x="300" y="450" type="line" smooth="yes"/>
      <point x="450" y="450" type="line" smooth="yes"/>
      <point x="450" y="750" type="line" smooth="yes"/>
      <point x="300" y="750" type="line" smooth="yes"/>
      <point x="300" y="450" type="line" smooth="yes"/>
      <point x="150" y="450" type="line" smooth="yes"/>
      <point x="150" y="750" type="line" smooth="yes"/>
      <point x="0" y="750" type="line" smooth="yes"/>
      <point x="0" y="0" type="line" smooth="yes"/>
    </contour>
  </outline>
</glyph>
<glyph name="latin_capital_letter_m" format="2">
  <advance width="900"/>
  <unicode hex="004D"/>
  <outline>
    <contour>
      <point x="150" y="0" type="line" smooth="yes"/>
      <point x="150" y="600" type="line" smooth="yes"/>
      <point x="300" y="600" type="line" smooth="yes"/>
      <point x="300" y="0" type="line" smooth="yes"/>
      <point x="450" y="0" type="line" smooth="yes"/>
      <point x="450" y="600" type="line" smooth="yes"/>
      <point x="600" y="600" type="line" smooth="yes"/>
      <point x="600" y="0" type="line" smooth="yes"/>
      <point x="750" y="0" type="line" smooth="yes"/>
      <point x="750" y="750" type="line" smooth="yes"/>
      <point x="0" y="750" type="line" smooth="yes"/>
      <point x="0" y="0" type="line" smooth="yes"/>
    </contour>
  </outline>
</glyph>
<glyph name="latin_capital_letter_q" format="2">
  <advance width="750"/>
  <unicode hex="0051"/>
  <outline>
    <contour>
      <point x="150" y="150" type="line"/>
      <point x="150" y="600" type="line"/>
      <point x="300" y="600" type="line"/>
      <point x="300" y="150" type="line"/>
    </contour>
    <contour>
      <point x="600" y="-150" type="line"/>
      <point x="600" y="0" type="line"/>
      <point x="450" y="0" type="line"/>
      <point x="450" y="750" type="line"/>
      <point x="0" y="750" type="line"/>
      <point x="0" y="0" type="line"/>
      <point x="300" y="0" type="line"/>
      <point x="300" y="-150" type="line"/>
    </contour>
  </outline>
</glyph>
<glyph name="latin_capital_letter_v" format="2">
  <advance width="600"/>
  <unicode hex="0056"/>
  <outline>
    <contour>
      <point x="300" y="0" type="line"/>
      <point x="300" y="150" type="line"/>
      <point x="450" y="150" type="line"/>
      <point x="450" y="750" type="line"/>
      <point x="300" y="750" type="line"/>
      <point x="300" y="150" type="line"/>
      <point x="150" y="150" type="line"/>
      <point x="150" y="750" type="line"/>
      <point x="0" y="750" type="line"/>
      <point x="0" y="150" type="line"/>
      <point x="150" y="150" type="line"/>
      <point x="150" y="0" type="line"/>
    </contour>
  </outline>
</glyph>
<glyph name="latin_capital_letter_w" format="2">
  <advance width="900"/>
  <unicode hex="0057"/>
  <outline>
    <contour>
      <point x="750" y="0" type="line"/>
      <point x="750" y="750" type="line"/>
      <point x="600" y="750" type="line"/>
      <point x="600" y="150" type="line"/>
      <point x="450" y="150" type="line"/>
      <point x="450" y="750" type="line"/>
      <point x="300" y="750" type="line"/>
      <point x="300" y="150" type="line"/>
      <point x="150" y="150" type="line"/>
      <point x="150" y="750" type="line"/>
      <point x="0" y="750" type="line"/>
      <point x="0" y="0" type="line"/>
    </contour>
  </outline>
</glyph>
<glyph name="latin_capital_letter_z" format="2">
  <advance width="600"/>
  <unicode hex="005A"/>
  <outline>
    <contour>
      <point x="450" y="0" type="line" smooth="yes"/>
      <point x="450" y="150" type="line" smooth="yes"/>
      <point x="150" y="150" type="line" smooth="yes"/>
      <point x="150" y="300" type="line" smooth="yes"/>
      <point x="300" y="300" type="line" smooth="yes"/>
      <point x="300" y="450" type="line" smooth="yes"/>
      <point x="450" y="450" type="line" smooth="yes"/>
      <point x="450" y="750" type="line" smooth="yes"/>
      <point x="0" y="750" type="line" smooth="yes"/>
      <point x="0" y="600" type="line" smooth="yes"/>
      <point x="300" y="600" type="line" smooth="yes"/>
      <point x="300" y="450" type="line" smooth="yes"/>
      <point x="150" y="450" type="line" smooth="yes"/>
      <point x="150" y="300" type="line" smooth="yes"/>
      <point x="0" y="300" type="line" smooth="yes"/>
      <point x="0" y="0" type="line" smooth="yes"/>
    </contour>
  </outline>
</glyph>
<glyph name="backslash" format="2">
  <advance width="600"/>
  <unicode hex="005C"/>
  <outline>
    <contour>
      <point x="450" y="0" type="line" smooth="yes"/>
      <point x="450" y="300" type="line" smooth="yes"/>
      <point x="300" y="300" type="line" smooth="yes"/>
      <point x="300" y="450" type="line" smooth="yes"/>
      <point x="150" y="450" type="line" smooth="yes"/>
      <point x="150" y="750" type="line" smooth="yes"/>
      <point x="0" y="750" type="line" smooth="yes"/>
      <point x="0" y="450" type="line" smooth="yes"/>
      <point x="150" y="450" type="line" smooth="yes"/>
      <point x="150" y="300" type="line" smooth="yes"/>
      <point x="300" y="300" type="line" smooth="yes"/>
      <point x="300" y="0" type="line" smooth="yes"/>
    </contour>
  </outline>
</glyph>
<glyph name="right_square_bracket" format="2">
  <advance width="450"/>
  <unicode hex="005D"/>
  <outline>
    <contour>
      <point x="300" y="0" type="line"/>
      <point x="300" y="750" type="line"/>
      <point x="0" y="750" type="line"/>
      <point x="0" y="600" type="line"/>
      <point x="150" y="600" type="line"/>
      <point x="150" y="150" type="line"/>
      <point x="0" y="150" type="line"/>
      <point x="0" y="0" type="line"/>
    </contour>
  </outline>
</glyph>
<glyph name="underscore" format="2">
  <advance width="600"/>
  <unicode hex="005F"/>
  <outline>
    <contour>
      <point x="450" y="-150" type="line" smooth="yes"/>
      <point x="450" y="0" type="line" smooth="yes"/>
      <point x="0" y="0" type="line" smooth="yes"/>
      <point x="0" y="-150" type="line" smooth="yes"/>
    </contour>
  </outline>
</glyph>
<glyph name="grave_accent" format="2">
  <advance width="450"/>
  <unicode hex="0060"/>
  <outline>
    <contour>
      <point x="300" y="450" type="line" smooth="yes"/>
      <point x="300" y="600" type="line" smooth="yes"/>
      <point x="150" y="600" type="line" smooth="yes"/>
      <point x="150" y="750" type="line" smooth="yes"/>
      <point x="0" y="750" type="line" smooth="yes"/>
      <point x="0" y="600" type="line" smooth="yes"/>
      <point x="150" y="600" type="line" smooth="yes"/>
      <point x="150" y="450" type="line" smooth="yes"/>
    </contour>
  </outline>
</glyph>
<glyph name="latin_small_letter_a" format="2">
  <advance width="750"/>
  <unicode hex="0061"/>
  <outline>
    <contour>
      <point x="600" y="0" type="line"/>
      <point x="600" y="150" type="line"/>
      <point x="450" y="150" type="line"/>
      <point x="450" y="450" type="line"/>
      <point x="150" y="450" type="line"/>
      <point x="150" y="300" type="line"/>
      <point x="0" y="300" type="line"/>
      <point x="0" y="150" type="line"/>
      <point x="150" y="150" type="line"/>
      <point x="150" y="300" type="line"/>
      <point x="300" y="300" type="line"/>
      <point x="300" y="150" type="line"/>
      <point x="150" y="150" type="line"/>
      <point x="150" y="0" type="line"/>
    </contour>
  </outline>
</glyph>
<glyph name="latin_small_letter_e" format="2">
  <advance width="600"/>
  <unicode hex="0065"/>
  <outline>
    <contour>
      <point x="300" y="0" type="line" smooth="yes"/>
      <point x="300" y="150" type="line" smooth="yes"/>
      <point x="450" y="150" type="line" smooth="yes"/>
      <point x="450" y="450" type="line" smooth="yes"/>
      <point x="0" y="450" type="line" smooth="yes"/>
      <point x="0" y="0" type="line" smooth="yes"/>
    </contour>
  </outline>
</glyph>
<glyph name="latin_small_letter_f" format="2">
  <advance width="600"/>
  <unicode hex="0066"/>
  <outline>
    <contour>
      <point x="300" y="0" type="line" smooth="yes"/>
      <point x="300" y="300" type="line" smooth="yes"/>
      <point x="450" y="300" type="line" smooth="yes"/>
      <point x="450" y="450" type="line" smooth="yes"/>
      <point x="300" y="450" type="line" smooth="yes"/>
      <point x="300" y="600" type="line" smooth="yes"/>
      <point x="450" y="600" type="line" smooth="yes"/>
      <point x="450" y="750" type="line" smooth="yes"/>
      <point x="150" y="750" type="line" smooth="yes"/>
      <point x="150" y="450" type="line" smooth="yes"/>
      <point x="0" y="450" type="line" smooth="yes"/>
      <point x="0" y="300" type="line" smooth="yes"/>
      <point x="150" y="300" type="line" smooth="yes"/>
      <point x="150" y="0" type="line" smooth="yes"/>
    </contour>
  </outline>
</glyph>
<glyph name="latin_small_letter_j" format="2">
  <advance width="450"/>
  <unicode hex="006A"/>
  <outline>
    <contour>
      <point x="300" y="600" type="line"/>
      <point x="300" y="750" type="line"/>
      <point x="150" y="750" type="line"/>
      <point x="150" y="600" type="line"/>
    </contour>
    <contour>
      <point x="300" y="0" type="line"/>
      <point x="300" y="450" type="line"/>
      <point x="150" y="450" type="line"/>
      <point x="150" y="150" type="line"/>
      <point x="0" y="150" type="line"/>
      <point x="0" y="0" type="line"/>
    </contour>
  </outline>
</glyph>
<glyph name="latin_small_letter_k" format="2">
  <advance width="600"/>
  <unicode hex="006B"/>
  <outline>
    <contour>
      <point x="150" y="0" type="line" smooth="yes"/>
      <point x="150" y="150" type="line" smooth="yes"/>
      <point x="300" y="150" type="line" smooth="yes"/>
      <point x="300" y="0" type="line" smooth="yes"/>
      <point x="450" y="0" type="line" smooth="yes"/>
      <point x="450" y="150" type="line" smooth="yes"/>
      <point x="300" y="150" type="line" smooth="yes"/>
      <point x="300" y="300" type="line" smooth="yes"/>
      <point x="450" y="300" type="line" smooth="yes"/>
      <point x="450" y="450" type="line" smooth="yes"/>
      <point x="300" y="450" type="line" smooth="yes"/>
      <point x="300" y="300" type="line" smooth="yes"/>
      <point x="150" y="300" type="line" smooth="yes"/>
      <point x="150" y="750" type="line" smooth="yes"/>
      <point x="0" y="750" type="line" smooth="yes"/>
      <point x="0" y="0" type="line" smooth="yes"/>
    </contour>
  </outline>
</glyph>
<glyph name="latin_small_letter_l" format="2">
  <advance width="300"/>
  <unicode hex="006C"/>
  <outline>
    <contour>
      <point x="150" y="0" type="line" smooth="yes"/>
      <point x="150" y="750" type="line" smooth="yes"/>
      <point x="0" y="750" type="line" smooth="yes"/>
      <point x="0" y="0" type="line" smooth="yes"/>
    </contour>
  </outline>
</glyph>
<glyph name="latin_small_letter_m" format="2">
  <advance width="900"/>
  <unicode hex="006D"/>
  <outline>
    <contour>
      <point x="150" y="0" type="line"/>
      <point x="150" y="300" type="line"/>
      <point x="300" y="300" type="line"/>
      <point x="300" y="0" type="line"/>
      <point x="450" y="0" type="line"/>
      <point x="450" y="300" type="line"/>
      <point x="600" y="300" type="line"/>
      <point x="600" y="0" type="line"/>
      <point x="750" y="0" type="line"/>
      <point x="750" y="450" type="line"/>
      <point x="0" y="450" type="line"/>
      <point x="0" y="0" type="line"/>
    </contour>
  </outline>
</glyph>
<glyph name="latin_small_letter_q" format="2">
  <advance width="600"/>
  <unicode hex="0071"/>
  <outline>
    <contour>
      <point x="150" y="150" type="line"/>
      <point x="150" y="300" type="line"/>
      <point x="300" y="300" type="line"/>
      <point x="300" y="150" type="line"/>
    </contour>
    <contour>
      <point x="450" y="-300" type="line"/>
      <point x="450" y="450" type="line"/>
      <point x="0" y="450" type="line"/>
      <point x="0" y="0" type="line"/>
      <point x="300" y="0" type="line"/>
      <point x="300" y="-300" type="line"/>
    </contour>
  </outline>
</glyph>
<glyph name="latin_small_letter_u" format="2">
  <advance width="600"/>
  <unicode hex="0075"/>
  <outline>
    <contour>
      <point x="450" y="0" type="line"/>
      <point x="450" y="450" type="line"/>
      <point x="300" y="450" type="line"/>
      <point x="300" y="150" type="line"/>
      <point x="150" y="150" type="line"/>
      <point x="150" y="450" type="line"/>
      <point x="0" y="450" type="line"/>
      <point x="0" y="0" type="line"/>
    </contour>
  </outline>
</glyph>
<glyph name="latin_small_letter_v" format="2">
  <advance width="600"/>
  <unicode hex="0076"/>
  <outline>
    <contour>
      <point x="300" y="0" type="line" smooth="yes"/>
      <point x="300" y="150" type="line" smooth="yes"/>
      <point x="450" y="150" type="line" smooth="yes"/>
      <point x="450" y="450" type="line" smooth="yes"/>
      <point x="300" y="450" type="line" smooth="yes"/>
      <point x="300" y="150" type="line" smooth="yes"/>
      <point x="150" y="150" type="line" smooth="yes"/>
      <point x="150" y="450" type="line" smooth="yes"/>
      <point x="0" y="450" type="line" smooth="yes"/>
      <point x="0" y="150" type="line" smooth="yes"/>
      <point x="150" y="150" type="line" smooth="yes"/>
      <point x="150" y="0" type="line" smooth="yes"/>
    </contour>
  </outline>
</glyph>
<glyph name="latin_small_letter_w" format="2">
  <advance width="900"/>
  <unicode hex="0077"/>
  <outline>
    <contour>
      <point x="750" y="0" type="line" smooth="yes"/>
      <point x="750" y="450" type="line" smooth="yes"/>
      <point x="600" y="450" type="line" smooth="yes"/>
      <point x="600" y="150" type="line" smooth="yes"/>
      <point x="450" y="150" type="line" smooth="yes"/>
      <point x="450" y="450" type="line" smooth="yes"/>
      <point x="300" y="450" type="line" smooth="yes"/>
      <point x="300" y="150" type="line" smooth="yes"/>
      <point x="150" y="150" type="line" smooth="yes"/>
      <point x="150" y="450" type="line" smooth="yes"/>
      <point x="0" y="450" type="line" smooth="yes"/>
      <point x="0" y="0" type="line" smooth="yes"/>
    </contour>
  </outline>
</glyph>
<glyph name="latin_small_letter_z" format="2">
  <advance width="600"/>
  <unicode hex="007A"/>
  <outline>
    <contour>
      <point x="450" y="0" type="line" smooth="yes"/>
      <point x="450" y="150" type="line" smooth="yes"/>
      <point x="300" y="150" type="line" smooth="yes"/>
      <point x="300" y="450" type="line" smooth="yes"/>
      <point x="0" y="450" type="line" smooth="yes"/>
      <point x="0" y="300" type="line" smooth="yes"/>
      <point x="150" y="300" type="line" smooth="yes"/>
      <point x="150" y="0" type="line" smooth="yes"/>
    </contour>
  </outline>
</glyph>
<glyph name="vertical_bar" format="2">
  <advance width="300"/>
  <unicode hex="007C"/>
  <outline>
    <contour>
      <point x="150" y="0" type="line" smooth="yes"/>
      <point x="150" y="750" type="line" smooth="yes"/>
      <point x="0" y="750" type="line" smooth="yes"/>
      <point x="0" y="0" type="line" smooth="yes"/>
    </contour>
  </outline>
</glyph>
<glyph name="ascii_tilde" format="2">
  <advance width="750"/>
  <unicode hex="007E"/>
  <outline>
    <contour>
      <point x="150" y="150" type="line" smooth="yes"/>
      <point x="150" y="300" type="line" smooth="yes"/>
      <point x="300" y="300" type="line" smooth="yes"/>
      <point x="300" y="150" type="line" smooth="yes"/>
      <point x="450" y="150" type="line" smooth="yes"/>
      <point x="450" y="300" type="line" smooth="yes"/>
      <point x="600" y="300" type="line" smooth="yes"/>
      <point x="600" y="450" type="line" smooth="yes"/>
      <point x="450" y="450" type="line" smooth="yes"/>
      <point x="450" y="300" type="line" smooth="yes"/>
      <point x="300" y="300" type="line" smooth="yes"/>
      <point x="300" y="450" type="line" smooth="yes"/>
      <point x="150" y="450" type="line" smooth="yes"/>
      <point x="150" y="300" type="line" smooth="yes"/>
      <point x="0" y="300" type="line" smooth="yes"/>
      <point x="0" y="150" type="line" smooth="yes"/>
    </contour>
  </outline>
</glyph>
<glyph name="pound_sign" format="2">
  <advance width="750"/>
  <unicode hex="00A3"/>
  <outline>
    <contour>
      <point x="600" y="0" type="line" smooth="yes"/>
      <point x="600" y="150" type="line" smooth="yes"/>
      <point x="300" y="150" type="line" smooth="yes"/>
      <point x="300" y="300" type="line" smooth="yes"/>
      <point x="450" y="300" type="line" smooth="yes"/>
      <point x="450" y="450" type="line" smooth="yes"/>
      <point x="300" y="450" type="line" smooth="yes"/>
      <point x="300" y="600" type="line" smooth="yes"/>
      <point x="600" y="600" type="line" smooth="yes"/>
      <point x="600" y="750" type="line" smooth="yes"/>
      <point x="300" y="750" type="line" smooth="yes"/>
      <point x="300" y="600" type="line" smooth="yes"/>
      <point x="150" y="600" type="line" smooth="yes"/>
      <point x="150" y="450" type="line" smooth="yes"/>
      <point x="0" y="450" type="line" smooth="yes"/>
      <point x="0" y="300" type="line" smooth="yes"/>
      <point x="150" y="300" type="line" smooth="yes"/>
      <point x="150" y="150" type="line" smooth="yes"/>
      <point x="0" y="150" type="line" smooth="yes"/>
      <point x="0" y="0" type="line" smooth="yes"/>
    </contour>
  </outline>
</glyph>
<glyph name="yen_sign" format="2">
  <advance width="900"/>
  <unicode hex="00A5"/>
  <outline>
    <contour>
      <point x="450" y="-300" type="line"/>
      <point x="450" y="-150" type="line"/>
      <point x="750" y="-150" type="line"/>
      <point x="750" y="0" type="line"/>
      <point x="450" y="0" type="line"/>
      <point x="450" y="150" type="line"/>
      <point x="750" y="150" type="line"/>
      <point x="750" y="300" type="line"/>
      <point x="450" y="300" type="line"/>
      <point x="450" y="450" type="line"/>
      <point x="600" y="450" type="line"/>
      <point x="600" y="600" type="line"/>
      <point x="750" y="600" type="line"/>
      <point x="750" y="750" type="line"/>
      <point x="600" y="750" type="line"/>
      <point x="600" y="600" type="line"/>
      <point x="450" y="600" type="line"/>
      <point x="450" y="450" type="line"/>
      <point x="300" y="450" type="line"/>
      <point x="300" y="600" type="line"/>
      <point x="150" y="600" type="line"/>
      <point x="150" y="750" type="line"/>
      <point x="0" y="750" type="line"/>
      <point x="0" y="600" type="line"/>
      <point x="150" y="600" type="line"/>
      <point x="150" y="450" type="line"/>
      <point x="300" y="450" type="line"/>
      <point x="300" y="300" type="line"/>
      <point x="0" y="300" type="line"/>
      <point x="0" y="150" type="line"/>
      <point x="300" y="150" type="line"/>
      <point x="300" y="0" type="line"/>
      <point x="0" y="0" type="line"/>
      <point x="0" y="-150" type="line"/>
      <point x="300" y="-150" type="line"/>
      <point x="300" y="-300" type="line"/>
    </contour>
  </outline>
</glyph>
<glyph name="broken_bar" format="2">
  <advance width="300"/>
  <unicode hex="00A6"/>
  <outline>
    <contour>
      <point x="150" y="450" type="line"/>
      <point x="150" y="750" type="line"/>
      <point x="0" y="750" type="line"/>
      <point x="0" y="450" type="line"/>
    </contour>
    <contour>
      <point x="150" y="0" type="line"/>
      <point x="150" y="300" type="line"/>
      <point x="0" y="300" type="line"/>
      <point x="0" y="0" type="line"/>
    </contour>
  </outline>
</glyph>
<glyph name="diaeresis" format="2">
  <advance width="600"/>
  <unicode hex="00A8"/>
  <outline>
    <contour>
      <point x="450" y="600" type="line"/>
      <point x="450" y="750" type="line"/>
      <point x="300" y="750" type="line"/>
      <point x="300" y="600" type="line"/>
    </contour>
    <contour>
      <point x="150" y="600" type="line"/>
      <point x="150" y="750" type="line"/>
      <point x="0" y="750" type="line"/>
      <point x="0" y="600" type="line"/>
    </contour>
  </outline>
</glyph>
<glyph name="copyright_sign" format="2">
  <advance width="1050"/>
  <unicode hex="00A9"/>
  <outline>
    <contour>
      <point x="600" y="150" type="line" smooth="yes"/>
      <point x="600" y="450" type="line" smooth="yes"/>
      <point x="300" y="450" type="line" smooth="yes"/>
      <point x="300" y="150" type="line" smooth="yes"/>
    </contour>
    <contour>
      <point x="750" y="-150" type="line" smooth="yes"/>
      <point x="750" y="0" type="line" smooth="yes"/>
      <point x="900" y="0" type="line" smooth="yes"/>
      <point x="900" y="600" type="line" smooth="yes"/>
      <point x="750" y="600" type="line" smooth="yes"/>
      <point x="750" y="750" type="line" smooth="yes"/>
      <point x="150" y="750" type="line" smooth="yes"/>
      <point x="150" y="600" type="line" smooth="yes"/>
      <point x="0" y="600" type="line" smooth="yes"/>
      <point x="0" y="0" type="line" smooth="yes"/>
      <point x="150" y="0" type="line" smooth="yes"/>
      <point x="150" y="600" type="line" smooth="yes"/>
      <point x="750" y="600" type="line" smooth="yes"/>
      <point x="750" y="0" type="line" smooth="yes"/>
      <point x="150" y="0" type="line" smooth="yes"/>
      <point x="150" y="-150" type="line" smooth="yes"/>
    </contour>
  </outline>
</glyph>
<glyph name="acute_accent" format="2">
  <advance width="450"/>
  <unicode hex="00B4"/>
  <outline>
    <contour>
      <point x="150" y="450" type="line"/>
      <point x="150" y="600" type="line"/>
      <point x="300" y="600" type="line"/>
      <point x="300" y="750" type="line"/>
      <point x="150" y="750" type="line"/>
      <point x="150" y="600" type="line"/>
      <point x="0" y="600" type="line"/>
      <point x="0" y="450" type="line"/>
    </contour>
  </outline>
</glyph>
<glyph name="middle_dot" format="2">
  <advance width="600"/>
  <unicode hex="00B7"/>
  <outline>
    <contour>
      <point x="300" y="300" type="line"/>
      <point x="300" y="450" type="line"/>
      <point x="150" y="450" type="line"/>
      <point x="150" y="300" type="line"/>
    </contour>
  </outline>
</glyph>
<glyph name="right_pointing_double_angle_quotation_mark" format="2">
  <advance width="750"/>
  <unicode hex="00BB"/>
  <outline>
    <contour>
      <point x="150" y="150" type="line" smooth="yes"/>
      <point x="150" y="300" type="line" smooth="yes"/>
      <point x="300" y="300" type="line" smooth="yes"/>
      <point x="300" y="450" type="line" smooth="yes"/>
      <point x="450" y="450" type="line" smooth="yes"/>
      <point x="450" y="300" type="line" smooth="yes"/>
      <point x="300" y="300" type="line" smooth="yes"/>
      <point x="300" y="150" type="line" smooth="yes"/>
      <point x="450" y="150" type="line" smooth="yes"/>
      <point x="450" y="300" type="line" smooth="yes"/>
      <point x="600" y="300" type="line" smooth="yes"/>
      <point x="600" y="450" type="line" smooth="yes"/>
      <point x="450" y="450" type="line" smooth="yes"/>
      <point x="450" y="600" type="line" smooth="yes"/>
      <point x="300" y="600" type="line" smooth="yes"/>
      <point x="300" y="450" type="line" smooth="yes"/>
      <point x="150" y="450" type="line" smooth="yes"/>
      <point x="150" y="600" type="line" smooth="yes"/>
      <point x="0" y="600" type="line" smooth="yes"/>
      <point x="0" y="450" type="line" smooth="yes"/>
      <point x="150" y="450" type="line" smooth="yes"/>
      <point x="150" y="300" type="line" smooth="yes"/>
      <point x="0" y="300" type="line" smooth="yes"/>
      <point x="0" y="150" type="line" smooth="yes"/>
    </contour>
  </outline>
</glyph>
<glyph name="latin_capital_letter_u_with_acute" format="2">
  <advance width="900"/>
  <unicode hex="00DA"/>
  <outline>
    <contour>
      <point x="300" y="900" type="line"/>
      <point x="300" y="1050" type="line"/>
      <point x="450" y="1050" type="line"/>
      <point x="450" y="1200" type="line"/>
      <point x="300" y="1200" type="line"/>
      <point x="300" y="1050" type="line"/>
      <point x="150" y="1050" type="line"/>
      <point x="150" y="900" type="line"/>
    </contour>
    <contour>
      <point x="450" y="0" type="line"/>
      <point x="450" y="750" type="line"/>
      <point x="300" y="750" type="line"/>
      <point x="300" y="150" type="line"/>
      <point x="150" y="150" type="line"/>
      <point x="150" y="750" type="line"/>
      <point x="0" y="750" type="line"/>
      <point x="0" y="0" type="line"/>
    </contour>
  </outline>
</glyph>
<glyph name="latin_capital_letter_y_with_acute" format="2">
  <advance width="900"/>
  <unicode hex="00DD"/>
  <outline>
    <contour>
      <point x="300" y="900" type="line"/>
      <point x="300" y="1050" type="line"/>
      <point x="450" y="1050" type="line"/>
      <point x="450" y="1200" type="line"/>
      <point x="300" y="1200" type="line"/>
      <point x="300" y="1050" type="line"/>
      <point x="150" y="1050" type="line"/>
      <point x="150" y="900" type="line"/>
    </contour>
    <contour>
      <point x="300" y="0" type="line"/>
      <point x="300" y="450" type="line"/>
      <point x="450" y="450" type="line"/>
      <point x="450" y="750" type="line"/>
      <point x="300" y="750" type="line"/>
      <point x="300" y="450" type="line"/>
      <point x="150" y="450" type="line"/>
      <point x="150" y="750" type="line"/>
      <point x="0" y="750" type="line"/>
      <point x="0" y="450" type="line"/>
      <point x="150" y="450" type="line"/>
      <point x="150" y="0" type="line"/>
    </contour>
  </outline>
</glyph>
<glyph name="latin_small_letter_i_with_diaeresis" format="2">
  <advance width="900"/>
  <unicode hex="00EF"/>
  <outline>
    <contour>
      <point x="450" y="900" type="line" smooth="yes"/>
      <point x="450" y="1050" type="line" smooth="yes"/>
      <point x="300" y="1050" type="line" smooth="yes"/>
      <point x="300" y="900" type="line" smooth="yes"/>
    </contour>
    <contour>
      <point x="150" y="900" type="line" smooth="yes"/>
      <point x="150" y="1050" type="line" smooth="yes"/>
      <point x="0" y="1050" type="line" smooth="yes"/>
      <point x="0" y="900" type="line" smooth="yes"/>
    </contour>
    <contour>
      <point x="150" y="600" type="line" smooth="yes"/>
      <point x="150" y="750" type="line" smooth="yes"/>
      <point x="0" y="750" type="line" smooth="yes"/>
      <point x="0" y="600" type="line" smooth="yes"/>
    </contour>
    <contour>
      <point x="150" y="0" type="line" smooth="yes"/>
      <point x="150" y="450" type="line" smooth="yes"/>
      <point x="0" y="450" type="line" smooth="yes"/>
      <point x="0" y="0" type="line" smooth="yes"/>
    </contour>
  </outline>
</glyph>
<glyph name="latin_small_letter_u_with_diaeresis" format="2">
  <advance width="900"/>
  <unicode hex="00FC"/>
  <outline>
    <contour>
      <point x="450" y="600" type="line"/>
      <point x="450" y="750" type="line"/>
      <point x="300" y="750" type="line"/>
      <point x="300" y="600" type="line"/>
    </contour>
    <contour>
      <point x="150" y="600" type="line"/>
      <point x="150" y="750" type="line"/>
      <point x="0" y="750" type="line"/>
      <point x="0" y="600" type="line"/>
    </contour>
    <contour>
      <point x="450" y="0" type="line"/>
      <point x="450" y="450" type="line"/>
      <point x="300" y="450" type="line"/>
      <point x="300" y="150" type="line"/>
      <point x="150" y="150" type="line"/>
      <point x="150" y="450" type="line"/>
      <point x="0" y="450" type="line"/>
      <point x="0" y="0" type="line"/>
    </contour>
  </outline>
</glyph>
<glyph name="latin_small_letter_e_with_macron" format="2">
  <advance width="900"/>
  <unicode hex="0113"/>
  <outline>
    <contour>
      <point x="450" y="600" type="line"/>
      <point x="450" y="750" type="line"/>
      <point x="0" y="750" type="line"/>
      <point x="0" y="600" type="line"/>
    </contour>
    <contour>
      <point x="300" y="0" type="line"/>
      <point x="300" y="150" type="line"/>
      <point x="450" y="150" type="line"/>
      <point x="450" y="450" type="line"/>
      <point x="0" y="450" type="line"/>
      <point x="0" y="0" type="line"/>
    </contour>
  </outline>
</glyph>
<glyph name="latin_small_letter_e_with_dot_above" format="2">
  <advance width="900"/>
  <unicode hex="0117"/>
  <outline>
    <contour>
      <point x="300" y="600" type="line" smooth="yes"/>
      <point x="300" y="750" type="line" smooth="yes"/>
      <point x="150" y="750" type="line" smooth="yes"/>
      <point x="150" y="600" type="line" smooth="yes"/>
    </contour>
    <contour>
      <point x="300" y="0" type="line" smooth="yes"/>
      <point x="300" y="150" type="line" smooth="yes"/>
      <point x="450" y="150" type="line" smooth="yes"/>
      <point x="450" y="450" type="line" smooth="yes"/>
      <point x="0" y="450" type="line" smooth="yes"/>
      <point x="0" y="0" type="line" smooth="yes"/>
    </contour>
  </outline>
</glyph>
<glyph name="latin_small_letter_i_with_tilde" format="2">
  <advance width="900"/>
  <unicode hex="0129"/>
  <outline>
    <contour>
      <point x="150" y="900" type="line"/>
      <point x="150" y="1050" type="line"/>
      <point x="300" y="1050" type="line"/>
      <point x="300" y="900" type="line"/>
      <point x="450" y="900" type="line"/>
      <point x="450" y="1200" type="line"/>
      <point x="150" y="1200" type="line"/>
      <point x="150" y="1050" type="line"/>
      <point x="0" y="1050" type="line"/>
      <point x="0" y="900" type="line"/>
    </contour>
    <contour>
      <point x="150" y="600" type="line"/>
      <point x="150" y="750" type="line"/>
      <point x="0" y="750" type="line"/>
      <point x="0" y="600" type="line"/>
    </contour>
    <contour>
      <point x="150" y="0" type="line"/>
      <point x="150" y="450" type="line"/>
      <point x="0" y="450" type="line"/>
      <point x="0" y="0" type="line"/>
    </contour>
  </outline>
</glyph>
<glyph name="latin_capital_letter_i_with_breve" format="2">
  <advance width="900"/>
  <unicode hex="012C"/>
  <outline>
    <contour>
      <point x="300" y="900" type="line" smooth="yes"/>
      <point x="300" y="1050" type="line" smooth="yes"/>
      <point x="450" y="1050" type="line" smooth="yes"/>
      <point x="450" y="1200" type="line" smooth="yes"/>
      <point x="300" y="1200" type="line" smooth="yes"/>
      <point x="300" y="1050" type="line" smooth="yes"/>
      <point x="150" y="1050" type="line" smooth="yes"/>
      <point x="150" y="1200" type="line" smooth="yes"/>
      <point x="0" y="1200" type="line" smooth="yes"/>
      <point x="0" y="1050" type="line" smooth="yes"/>
      <point x="150" y="1050" type="line" smooth="yes"/>
      <point x="150" y="900" type="line" smooth="yes"/>
    </contour>
    <contour>
      <point x="450" y="0" type="line" smooth="yes"/>
      <point x="450" y="150" type="line" smooth="yes"/>
      <point x="300" y="150" type="line" smooth="yes"/>
      <point x="300" y="600" type="line" smooth="yes"/>
      <point x="450" y="600" type="line" smooth="yes"/>
      <point x="450" y="750" type="line" smooth="yes"/>
      <point x="0" y="750" type="line" smooth="yes"/>
      <point x="0" y="600" type="line" smooth="yes"/>
      <point x="150" y="600" type="line" smooth="yes"/>
      <point x="150" y="150" type="line" smooth="yes"/>
      <point x="0" y="150" type="line" smooth="yes"/>
      <point x="0" y="0" type="line" smooth="yes"/>
    </contour>
  </outline>
</glyph>
<glyph name="latin_capital_letter_l_with_caron" format="2">
  <advance width="900"/>
  <unicode hex="013D"/>
  <outline>
    <contour>
      <point x="300" y="900" type="line" smooth="yes"/>
      <point x="300" y="1050" type="line" smooth="yes"/>
      <point x="450" y="1050" type="line" smooth="yes"/>
      <point x="450" y="1200" type="line" smooth="yes"/>
      <point x="300" y="1200" type="line" smooth="yes"/>
      <point x="300" y="1050" type="line" smooth="yes"/>
      <point x="150" y="1050" type="line" smooth="yes"/>
      <point x="150" y="1200" type="line" smooth="yes"/>
      <point x="0" y="1200" type="line" smooth="yes"/>
      <point x="0" y="1050" type="line" smooth="yes"/>
      <point x="150" y="1050" type="line" smooth="yes"/>
      <point x="150" y="900" type="line" smooth="yes"/>
    </contour>
    <contour>
      <point x="450" y="0" type="line" smooth="yes"/>
      <point x="450" y="150" type="line" smooth="yes"/>
      <point x="150" y="150" type="line" smooth="yes"/>
      <point x="150" y="750" type="line" smooth="yes"/>
      <point x="0" y="750" type="line" smooth="yes"/>
      <point x="0" y="0" type="line" smooth="yes"/>
    </contour>
  </outline>
</glyph>
<glyph name="latin_small_letter_l_with_caron" format="2">
  <advance width="900"/>
  <unicode hex="013E"/>
  <outline>
    <contour>
      <point x="300" y="900" type="line" smooth="yes"/>
      <point x="300" y="1050" type="line" smooth="yes"/>
      <point x="450" y="1050" type="line" smooth="yes"/>
      <point x="450" y="1200" type="line" smooth="yes"/>
      <point x="300" y="1200" type="line" smooth="yes"/>
      <point x="300" y="1050" type="line" smooth="yes"/>
      <point x="150" y="1050" type="line" smooth="yes"/>
      <point x="150" y="1200" type="line" smooth="yes"/>
      <point x="0" y="1200" type="line" smooth="yes"/>
      <point x="0" y="1050" type="line" smooth="yes"/>
      <point x="150" y="1050" type="line" smooth="yes"/>
      <point x="150" y="900" type="line" smooth="yes"/>
    </contour>
    <contour>
      <point x="150" y="0" type="line" smooth="yes"/>
      <point x="150" y="750" type="line" smooth="yes"/>
      <point x="0" y="750" type="line" smooth="yes"/>
      <point x="0" y="0" type="line" smooth="yes"/>
    </contour>
  </outline>
</glyph>
<glyph name="latin_capital_letter_o_with_breve" format="2">
  <advance width="900"/>
  <unicode hex="014E"/>
  <outline>
    <contour>
      <point x="300" y="900" type="line"/>
      <point x="300" y="1050" type="line"/>
      <point x="450" y="1050" type="line"/>
      <point x="450" y="1200" type="line"/>
      <point x="300" y="1200" type="line"/>
      <point x="300" y="1050" type="line"/>
      <point x="150" y="1050" type="line"/>
      <point x="150" y="1200" type="line"/>
      <point x="0" y="1200" type="line"/>
      <point x="0" y="1050" type="line"/>
      <point x="150" y="1050" type="line"/>
      <point x="150" y="900" type="line"/>
    </contour>
    <contour>
      <point x="150" y="150" type="line"/>
      <point x="150" y="600" type="line"/>
      <point x="300" y="600" type="line"/>
      <point x="300" y="150" type="line"/>
    </contour>
    <contour>
      <point x="450" y="0" type="line"/>
      <point x="450" y="750" type="line"/>
      <point x="0" y="750" type="line"/>
      <point x="0" y="0" type="line"/>
    </contour>
  </outline>
</glyph>
<glyph name="latin_small_letter_s_with_acute" format="2">
  <advance width="900"/>
  <unicode hex="015B"/>
  <outline>
    <contour>
      <point x="300" y="600" type="line"/>
      <point x="300" y="750" type="line"/>
      <point x="450" y="750" type="line"/>
      <point x="450" y="900" type="line"/>
      <point x="300" y="900" type="line"/>
      <point x="300" y="750" type="line"/>
      <point x="150" y="750" type="line"/>
      <point x="150" y="600" type="line"/>
    </contour>
    <contour>
      <point x="300" y="0" type="line"/>
      <point x="300" y="300" type="line"/>
      <point x="450" y="300" type="line"/>
      <point x="450" y="450" type="line"/>
      <point x="150" y="450" type="line"/>
      <point x="150" y="150" type="line"/>
      <point x="0" y="150" type="line"/>
      <point x="0" y="0" type="line"/>
    </contour>
  </outline>
</glyph>
<glyph name="latin_capital_letter_u_with_tilde" format="2">
  <advance width="900"/>
  <unicode hex="0168"/>
  <outline>
    <contour>
      <point x="150" y="900" type="line" smooth="yes"/>
      <point x="150" y="1050" type="line" smooth="yes"/>
      <point x="300" y="1050" type="line" smooth="yes"/>
      <point x="300" y="900" type="line" smooth="yes"/>
      <point x="450" y="900" type="line" smooth="yes"/>
      <point x="450" y="1200" type="line" smooth="yes"/>
      <point x="150" y="1200" type="line" smooth="yes"/>
      <point x="150" y="1050" type="line" smooth="yes"/>
      <point x="0" y="1050" type="line" smooth="yes"/>
      <point x="0" y="900" type="line" smooth="yes"/>
    </contour>
    <contour>
      <point x="450" y="0" type="line" smooth="yes"/>
      <point x="450" y="750" type="line" smooth="yes"/>
      <point x="300" y="750" type="line" smooth="yes"/>
      <point x="300" y="150" type="line" smooth="yes"/>
      <point x="150" y="150" type="line" smooth="yes"/>
      <point x="150" y="750" type="line" smooth="yes"/>
      <point x="0" y="750" type="line" smooth="yes"/>
      <point x="0" y="0" type="line" smooth="yes"/>
    </contour>
  </outline>
</glyph>
<glyph name="latin_small_letter_u_with_double_acute" format="2">
  <advance width="900"/>
  <unicode hex="0171"/>
  <outline>
    <contour>
      <point x="300" y="600" type="line" smooth="yes"/>
      <point x="300" y="750" type="line" smooth="yes"/>
      <point x="450" y="750" type="line" smooth="yes"/>
      <point x="450" y="900" type="line" smooth="yes"/>
      <point x="150" y="900" type="line" smooth="yes"/>
      <point x="150" y="750" type="line" smooth="yes"/>
      <point x="0" y="750" type="line" smooth="yes"/>
      <point x="0" y="600" type="line" smooth="yes"/>
    </contour>
    <contour>
      <point x="450" y="0" type="line" smooth="yes"/>
      <point x="450" y="450" type="line" smooth="yes"/>
      <point x="300" y="450" type="line" smooth="yes"/>
      <point x="300" y="150" type="line" smooth="yes"/>
      <point x="150" y="150" type="line" smooth="yes"/>
      <point x="150" y="450" type="line" smooth="yes"/>
      <point x="0" y="450" type="line" smooth="yes"/>
      <point x="0" y="0" type="line" smooth="yes"/>
    </contour>
  </outline>
</glyph>
<glyph name="latin_small_letter_z_with_caron" format="2">
  <advance width="900"/>
  <unicode hex="017E"/>
  <outline>
    <contour>
      <point x="300" y="600" type="line" smooth="yes"/>
      <point x="300" y="750" type="line" smooth="yes"/>
      <point x="450" y="750" type="line" smooth="yes"/>
      <point x="450" y="900" type="line" smooth="yes"/>
      <point x="300" y="900" type="line" smooth="yes"/>
      <point x="300" y="750" type="line" smooth="yes"/>
      <point x="150" y="750" type="line" smooth="yes"/>
      <point x="150" y="900" type="line" smooth="yes"/>
      <point x="0" y="900" type="line" smooth="yes"/>
      <point x="0" y="750" type="line" smooth="yes"/>
      <point x="150" y="750" type="line" smooth="yes"/>
      <point x="150" y="600" type="line" smooth="yes"/>
    </contour>
    <contour>
      <point x="450" y="0" type="line" smooth="yes"/>
      <point x="450" y="150" type="line" smooth="yes"/>
      <point x="300" y="150" type="line" smooth="yes"/>
      <point x="300" y="450" type="line" smooth="yes"/>
      <point x="0" y="450" type="line" smooth="yes"/>
      <point x="0" y="300" type="line" smooth="yes"/>
      <point x="150" y="300" type="line" smooth="yes"/>
      <point x="150" y="0" type="line" smooth="yes"/>
    </contour>
  </outline>
</glyph>
<glyph name="latin_small_letter_g_with_caron" format="2">
  <advance width="900"/>
  <unicode hex="01E7"/>
  <outline>
    <contour>
      <point x="300" y="600" type="line" smooth="yes"/>
      <point x="300" y="750" type="line" smooth="yes"/>
      <point x="450" y="750" type="line" smooth="yes"/>
      <point x="450" y="900" type="line" smooth="yes"/>
      <point x="300" y="900" type="line" smooth="yes"/>
      <point x="300" y="750" type="line" smooth="yes"/>
      <point x="150" y="750" type="line" smooth="yes"/>
      <point x="150" y="900" type="line" smooth="yes"/>
      <point x="0" y="900" type="line" smooth="yes"/>
      <point x="0" y="750" type="line" smooth="yes"/>
      <point x="150" y="750" type="line" smooth="yes"/>
      <point x="150" y="600" type="line" smooth="yes"/>
    </contour>
    <contour>
      <point x="150" y="150" type="line" smooth="yes"/>
      <point x="150" y="300" type="line" smooth="yes"/>
      <point x="300" y="300" type="line" smooth="yes"/>
      <point x="300" y="150" type="line" smooth="yes"/>
    </contour>
    <contour>
      <point x="450" y="-300" type="line" smooth="yes"/>
      <point x="450" y="450" type="line" smooth="yes"/>
      <point x="0" y="450" type="line" smooth="yes"/>
      <point x="0" y="0" type="line" smooth="yes"/>
      <point x="300" y="0" type="line" smooth="yes"/>
      <point x="300" y="-150" type="line" smooth="yes"/>
      <point x="0" y="-150" type="line" smooth="yes"/>
      <point x="0" y="-300" type="line" smooth="yes"/>
    </contour>
  </outline>
</glyph>
<glyph name="latin_capital_letter_h_with_diaeresis" format="2">
  <advance width="900"/>
  <unicode hex="1E26"/>
  <outline>
    <contour>
      <point x="450" y="900" type="line"/>
      <point x="450" y="1050" type="line"/>
      <point x="300" y="1050" type="line"/>
      <point x="300" y="900" type="line"/>
    </contour>
    <contour>
      <point x="150" y="900" type="line"/>
      <point x="150" y="1050" type="line"/>
      <point x="0" y="1050" type="line"/>
      <point x="0" y="900" type="line"/>
    </contour>
    <contour>
      <point x="150" y="0" type="line"/>
      <point x="150" y="300" type="line"/>
      <point x="300" y="300" type="line"/>
      <point x="300" y="0" type="line"/>
      <point x="450" y="0" type="line"/>
      <point x="450" y="750" type="line"/>
      <point x="300" y="750" type="line"/>
      <point x="300" y="450" type="line"/>
      <point x="150" y="450" type="line"/>
      <point x="150" y="750" type="line"/>
      <point x="0" y="750" type="line"/>
      <point x="0" y="0" type="line"/>
    </contour>
  </outline>
</glyph>
<glyph name="latin_capital_letter_z_with_circumflex" format="2">
  <advance width="900"/>
  <unicode hex="1E90"/>
  <outline>
    <contour>
      <point x="150" y="900" type="line" smooth="yes"/>
      <point x="150" y="1050" type="line" smooth="yes"/>
      <point x="300" y="1050" type="line" smooth="yes"/>
      <point x="300" y="900" type="line" smooth="yes"/>
      <point x="450" y="900" type="line" smooth="yes"/>
      <point x="450" y="1050" type="line" smooth="yes"/>
      <point x="300" y="1050" type="line" smooth="yes"/>
      <point x="300" y="1200" type="line" smooth="yes"/>
      <point x="150" y="1200" type="line" smooth="yes"/>
      <point x="150" y="1050" type="line" smooth="yes"/>
      <point x="0" y="1050" type="line" smooth="yes"/>
      <point x="0" y="900" type="line" smooth="yes"/>
    </contour>
    <contour>
      <point x="450" y="0" type="line" smooth="yes"/>
      <point x="450" y="150" type="line" smooth="yes"/>
      <point x="150" y="150" type="line" smooth="yes"/>
      <point x="150" y="300" type="line" smooth="yes"/>
      <point x="300" y="300" type="line" smooth="yes"/>
      <point x="300" y="450" type="line" smooth="yes"/>
      <point x="450" y="450" type="line" smooth="yes"/>
      <point x="450" y="750" type="line" smooth="yes"/>
      <point x="0" y="750" type="line" smooth="yes"/>
      <point x="0" y="600" type="line" smooth="yes"/>
      <point x="300" y="600" type="line" smooth="yes"/>
      <point x="300" y="450" type="line" smooth="yes"/>
      <point x="150" y="450" type="line" smooth="yes"/>
      <point x="150" y="300" type="line" smooth="yes"/>
      <point x="0" y="300" type="line" smooth="yes"/>
      <point x="0" y="0" type="line" smooth="yes"/>
    </contour>
  </outline>
</glyph>
<glyph name="en_dash" format="2">
  <advance width="1050"/>
  <unicode hex="2013"/>
  <outline>
    <contour>
      <point x="900" y="450" type="line"/>
      <point x="900" y="600" type="line"/>
      <point x="0" y="600" type="line"/>
      <point x="0" y="450" type="line"/>
    </contour>
  </outline>
</glyph>
<glyph name="em_dash" format="2">
  <advance width="1350"/>
  <unicode hex="2014"/>
  <outline>
    <contour>
      <point x="1200" y="450" type="line" smooth="yes"/>
      <point x="1200" y="600" type="line" smooth="yes"/>
      <point x="0" y="600" type="line" smooth="yes"/>
      <point x="0" y="450" type="line" smooth="yes"/>
    </contour>
  </outline>
</glyph>
<glyph name="left_single_quotation_mark" format="2">
  <advance width="450"/>
  <unicode hex="2018"/>
  <outline>
    <contour>
      <point x="150" y="300" type="line"/>
      <point x="150" y="600" type="line"/>
      <point x="300" y="600" type="line"/>
      <point x="300" y="750" type="line"/>
      <point x="150" y="750" type="line"/>
      <point x="150" y="600" type="line"/>
      <point x="0" y="600" type="line"/>
      <point x="0" y="300" type="line"/>
    </contour>
  </outline>
</glyph>
<glyph name="right_double_quotation_mark" format="2">
  <advance width="750"/>
  <unicode hex="201D"/>
  <outline>
    <contour>
      <point x="150" y="300" type="line"/>
      <point x="150" y="450" type="line"/>
      <point x="300" y="450" type="line"/>
      <point x="300" y="300" type="line"/>
      <point x="450" y="300" type="line"/>
      <point x="450" y="450" type="line"/>
      <point x="600" y="450" type="line"/>
      <point x="600" y="750" type="line"/>
      <point x="450" y="750" type="line"/>
      <point x="450" y="450" type="line"/>
      <point x="300" y="450" type="line"/>
      <point x="300" y="750" type="line"/>
      <point x="150" y="750" type="line"/>
      <point x="150" y="450" type="line"/>
      <point x="0" y="450" type="line"/>
      <point x="0" y="300" type="line"/>
    </contour>
  </outline>
</glyph>
<glyph name="bullet" format="2">
  <advance width="600"/>
  <unicode hex="2022"/>
  <outline>
    <contour>
      <point x="300" y="150" type="line"/>
      <point x="300" y="450" type="line"/>
      <point x="0" y="450" type="line"/>
      <point x="0" y="150" type="line"/>
    </contour>
  </outline>
</glyph>
<glyph name="horizontal_ellipsis" format="2">
  <advance width="900"/>
  <unicode hex="2026"/>
  <outline>
    <contour>
      <point x="750" y="0" type="line"/>
      <point x="750" y="150" type="line"/>
      <point x="600" y="150" type="line"/>
      <point x="600" y="0" type="line"/>
    </contour>
    <contour>
      <point x="450" y="0" type="line"/>
      <point x="450" y="150" type="line"/>
      <point x="300" y="150" type="line"/>
      <point x="300" y="0" type="line"/>
    </contour>
    <contour>
      <point x="150" y="0" type="line"/>
      <point x="150" y="150" type="line"/>
      <point x="0" y="150" type="line"/>
      <point x="0" y="0" type="line"/>
    </contour>
  </outline>
</glyph>
<glyph name="single_left_pointing_angle_quotation_mark" format="2">
  <advance width="450"/>
  <unicode hex="2039"/>
  <outline>
    <contour>
      <point x="300" y="150" type="line"/>
      <point x="300" y="300" type="line"/>
      <point x="150" y="300" type="line"/>
      <point x="150" y="450" type="line"/>
      <point x="300" y="450" type="line"/>
      <point x="300" y="600" type="line"/>
      <point x="150" y="600" type="line"/>
      <point x="150" y="450" type="line"/>
      <point x="0" y="450" type="line"/>
      <point x="0" y="300" type="line"/>
      <point x="150" y="300" type="line"/>
      <point x="150" y="150" type="line"/>
    </contour>
  </outline>
</glyph>
<glyph name="single_right_pointing_angle_quotation_mark" format="2">
  <advance width="450"/>
  <unicode hex="203A"/>
  <outline>
    <contour>
      <point x="150" y="150" type="line"/>
      <point x="150" y="300" type="line"/>
      <point x="300" y="300" type="line"/>
      <point x="300" y="450" type="line"/>
      <point x="150" y="450" type="line"/>
      <point x="150" y="600" type="line"/>
      <point x="0" y="600" type="line"/>
      <point x="0" y="450" type="line"/>
      <point x="150" y="450" type="line"/>
      <point x="150" y="300" type="line"/>
      <point x="0" y="300" type="line"/>
      <point x="0" y="150" type="line"/>
    </contour>
  </outline>
</glyph>
<glyph name="exclamation_question_mark" format="2">
  <advance width="900"/>
  <unicode hex="2049"/>
  <outline>
    <contour>
      <point x="750" y="300" type="line"/>
      <point x="750" y="750" type="line"/>
      <point x="300" y="750" type="line"/>
      <point x="300" y="600" type="line"/>
      <point x="600" y="600" type="line"/>
      <point x="600" y="450" type="line"/>
      <point x="450" y="450" type="line"/>
      <point x="450" y="300" type="line"/>
    </contour>
    <contour>
      <point x="150" y="300" type="line"/>
      <point x="150" y="750" type="line"/>
      <point x="0" y="750" type="line"/>
      <point x="0" y="300" type="line"/>
    </contour>
    <contour>
      <point x="600" y="0" type="line"/>
      <point x="600" y="150" type="line"/>
      <point x="450" y="150" type="line"/>
      <point x="450" y="0" type="line"/>
    </contour>
    <contour>
      <point x="150" y="0" type="line"/>
      <point x="150" y="150" type="line"/>
      <point x="0" y="150" type="line"/>
      <point x="0" y="0" type="line"/>
    </contour>
  </outline>
</glyph>
<glyph name="low_asterisk" format="2">
  <advance width="600"/>
  <unicode hex="204E"/>
  <outline>
    <contour>
      <point x="150" y="150" type="line"/>
      <point x="150" y="300" type="line"/>
      <point x="300" y="300" type="line"/>
      <point x="300" y="150" type="line"/>
      <point x="450" y="150" type="line"/>
      <point x="450" y="300" type="line"/>
      <point x="300" y="300" type="line"/>
      <point x="300" y="450" type="line"/>
      <point x="450" y="450" type="line"/>
      <point x="450" y="600" type="line"/>
      <point x="300" y="600" type="line"/>
      <point x="300" y="450" type="line"/>
      <point x="150" y="450" type="line"/>
      <point x="150" y="600" type="line"/>
      <point x="0" y="600" type="line"/>
      <point x="0" y="450" type="line"/>
      <point x="150" y="450" type="line"/>
      <point x="150" y="300" type="line"/>
      <point x="0" y="300" type="line"/>
      <point x="0" y="150" type="line"/>
    </contour>
  </outline>
</glyph>
<glyph name="reversed_semicolon" format="2">
  <advance width="450"/>
  <unicode hex="204F"/>
  <outline>
    <contour>
      <point x="150" y="600" type="line" smooth="yes"/>
      <point x="150" y="750" type="line" smooth="yes"/>
      <point x="0" y="750" type="line" smooth="yes"/>
      <point x="0" y="600" type="line" smooth="yes"/>
    </contour>
    <contour>
      <point x="300" y="-150" type="line" smooth="yes"/>
      <point x="300" y="0" type="line" smooth="yes"/>
      <point x="150" y="0" type="line" smooth="yes"/>
      <point x="150" y="300" type="line" smooth="yes"/>
      <point x="0" y="300" type="line" smooth="yes"/>
      <point x="0" y="0" type="line" smooth="yes"/>
      <point x="150" y="0" type="line" smooth="yes"/>
      <point x="150" y="-150" type="line" smooth="yes"/>
    </contour>
  </outline>
</glyph>
<glyph name="trade_mark_sign" format="2">
  <advance width="1350"/>
  <unicode hex="2122"/>
  <outline>
    <contour>
      <point x="300" y="450" type="line" smooth="yes"/>
      <point x="300" y="900" type="line" smooth="yes"/>
      <point x="450" y="900" type="line" smooth="yes"/>
      <point x="450" y="450" type="line" smooth="yes"/>
      <point x="600" y="450" type="line" smooth="yes"/>
      <point x="600" y="750" type="line" smooth="yes"/>
      <point x="750" y="750" type="line" smooth="yes"/>
      <point x="750" y="600" type="line" smooth="yes"/>
      <point x="900" y="600" type="line" smooth="yes"/>
      <point x="900" y="750" type="line" smooth="yes"/>
      <point x="1050" y="750" type="line" smooth="yes"/>
      <point x="1050" y="450" type="line" smooth="yes"/>
      <point x="1200" y="450" type="line" smooth="yes"/>
      <point x="1200" y="1050" type="line" smooth="yes"/>
      <point x="1050" y="1050" type="line" smooth="yes"/>
      <point x="1050" y="900" type="line" smooth="yes"/>
      <point x="900" y="900" type="line" smooth="yes"/>
      <point x="900" y="750" type="line" smooth="yes"/>
      <point x="750" y="750" type="line" smooth="yes"/>
      <point x="750" y="900" type="line" smooth="yes"/>
      <point x="600" y="900" type="line" smooth="yes"/>
      <point x="600" y="1050" type="line" smooth="yes"/>
      <point x="0" y="1050" type="line" smooth="yes"/>
      <point x="0" y="900" type="line" smooth="yes"/>
      <point x="150" y="900" type="line" smooth="yes"/>
      <point x="150" y="450" type="line" smooth="yes"/>
    </contour>
  </outline>
</glyph>
<glyph name="leftwards_arrow" format="2">
  <advance width="750"/>
  <unicode hex="2190"/>
  <outline>
    <contour>
      <point x="300" y="150" type="line"/>
      <point x="300" y="300" type="line"/>
      <point x="600" y="300" type="line"/>
      <point x="600" y="450" type="line"/>
      <point x="300" y="450" type="line"/>
      <point x="300" y="600" type="line"/>
      <point x="150" y="600" type="line"/>
      <point x="150" y="450" type="line"/>
      <point x="0" y="450" type="line"/>
      <point x="0" y="300" type="line"/>
      <point x="150" y="300" type="line"/>
      <point x="150" y="150" type="line"/>
    </contour>
  </outline>
</glyph>
<glyph name="upwards_arrow" format="2">
  <advance width="600"/>
  <unicode hex="2191"/>
  <outline>
    <contour>
      <point x="300" y="150" type="line" smooth="yes"/>
      <point x="300" y="450" type="line" smooth="yes"/>
      <point x="450" y="450" type="line" smooth="yes"/>
      <point x="450" y="600" type="line" smooth="yes"/>
      <point x="300" y="600" type="line" smooth="yes"/>
      <point x="300" y="750" type="line" smooth="yes"/>
      <point x="150" y="750" type="line" smooth="yes"/>
      <point x="150" y="600" type="line" smooth="yes"/>
      <point x="0" y="600" type="line" smooth="yes"/>
      <point x="0" y="450" type="line" smooth="yes"/>
      <point x="150" y="450" type="line" smooth="yes"/>
      <point x="150" y="150" type="line" smooth="yes"/>
    </contour>
  </outline>
</glyph>
<glyph name="rightwards_arrow" format="2">
  <advance width="750"/>
  <unicode hex="2192"/>
  <outline>
    <contour>
      <point x="450" y="150" type="line" smooth="yes"/>
      <point x="450" y="300" type="line" smooth="yes"/>
      <point x="600" y="300" type="line" smooth="yes"/>
      <point x="600" y="450" type="line" smooth="yes"/>
      <point x="450" y="450" type="line" smooth="yes"/>
      <point x="450" y="600" type="line" smooth="yes"/>
      <point x="300" y="600" type="line" smooth="yes"/>
      <point x="300" y="450" type="line" smooth="yes"/>
      <point x="0" y="450" type="line" smooth="yes"/>
      <point x="0" y="300" type="line" smooth="yes"/>
      <point x="300" y="300" type="line" smooth="yes"/>
      <point x="300" y="150" type="line" smooth="yes"/>
    </contour>
  </outline>
</glyph>
<glyph name="downwards_arrow" format="2">
  <advance width="600"/>
  <unicode hex="2193"/>
  <outline>
    <contour>
      <point x="300" y="0" type="line" smooth="yes"/>
      <point x="300" y="150" type="line" smooth="yes"/>
      <point x="450" y="150" type="line" smooth="yes"/>
      <point x="450" y="300" type="line" smooth="yes"/>
      <point x="300" y="300" type="line" smooth="yes"/>
      <point x="300" y="600" type="line" smooth="yes"/>
      <point x="150" y="600" type="line" smooth="yes"/>
      <point x="150" y="300" type="line" smooth="yes"/>
      <point x="0" y="300" type="line" smooth="yes"/>
      <point x="0" y="150" type="line" smooth="yes"/>
      <point x="150" y="150" type="line" smooth="yes"/>
      <point x="150" y="0" type="line" smooth="yes"/>
    </contour>
  </outline>
</glyph>
<glyph name="infinity" format="2">
  <advance width="900"/>
  <unicode hex="221E"/>
  <outline>
    <contour>
      <point x="300" y="0" type="line" smooth="yes"/>
      <point x="300" y="150" type="line" smooth="yes"/>
      <point x="450" y="150" type="line" smooth="yes"/>
      <point x="450" y="300" type="line" smooth="yes"/>
      <point x="600" y="300" type="line" smooth="yes"/>
      <point x="600" y="150" type="line" smooth="yes"/>
      <point x="450" y="150" type="line" smooth="yes"/>
      <point x="450" y="0" type="line" smooth="yes"/>
      <point x="600" y="0" type="line" smooth="yes"/>
      <point x="600" y="150" type="line" smooth="yes"/>
      <point x="750" y="150" type="line" smooth="yes"/>
      <point x="750" y="300" type="line" smooth="yes"/>
      <point x="600" y="300" type="line" smooth="yes"/>
      <point x="600" y="450" type="line" smooth="yes"/>
      <point x="450" y="450" type="line" smooth="yes"/>
      <point x="450" y="300" type="line" smooth="yes"/>
      <point x="300" y="300" type="line" smooth="yes"/>
      <point x="300" y="450" type="line" smooth="yes"/>
      <point x="150" y="450" type="line" smooth="yes"/>
      <point x="150" y="300" type="line" smooth="yes"/>
      <point x="0" y="300" type="line" smooth="yes"/>
      <point x="0" y="150" type="line" smooth="yes"/>
      <point x="150" y="150" type="line" smooth="yes"/>
      <point x="150" y="300" type="line" smooth="yes"/>
      <point x="300" y="300" type="line" smooth="yes"/>
      <point x="300" y="150" type="line" smooth="yes"/>
      <point x="150" y="150" type="line" smooth="yes"/>
      <point x="150" y="0" type="line" smooth="yes"/>
    </contour>
  </outline>
</glyph>
<glyph name="hyphen_with_diaeresis" format="2">
  <advance width="900"/>
  <unicode hex="2E1A"/>
  <outline>
    <contour>
      <point x="450" y="600" type="line"/>
      <point x="450" y="750" type="line"/>
      <point x="300" y="750" type="line"/>
      <point x="300" y="600" type="line"/>
    </contour>
    <contour>
      <point x="150" y="600" type="line"/>
      <point x="150" y="750" type="line"/>
      <point x="0" y="750" type="line"/>
      <point x="0" y="600" type="line"/>
    </contour>
    <contour>
      <point x="450" y="300" type="line"/>
      <point x="450" y="450" type="line"/>
      <point x="0" y="450" type="line"/>
      <point x="0" y="300" type="line"/>
    </contour>
  </outline>
</glyph>
<glyph name=".notdef" format="2">
  <advance width="385"/>
  <outline>
    <contour>
      <point x="35" y="0" type="line"/>
      <point x="35" y="700" type="line"/>
      <point x="315" y="700" type="line"/>
      <point x="315" y="0" type="line"/>
    </contour>
    <contour>
      <point x="70" y="35" type="line"/>
      <point x="280" y="35" type="line"/>
      <point x="280" y="665" type="line"/>
      <point x="70" y="665" type="line"/>
    </contour>
  </outline>
</glyph>
